**ABCDEFGHIJKLMNOPQRSTUVWXYZabcdefghijklmnopqrstuvwxyz**************************
**PARASOLID !"#$%&'()*+,-./:;<=>?@[\]^_`{|}~0123456789**************************
**PART1;
MC=x86;
MC_MODEL=x86 Family 6 Model 23 Stepping 6, GenuineIntel;
MC_ID=unknown;
OS=Windows_NT;
OS_RELEASE=unknown;
FRU=Parasolid Version 22.1, build 256, 12- 1-2010;
APPL=SolidWorks 2011-2011006;
SITE=;
USER=unknown;
FORMAT=text;
GUISE=transmit;
KEY=PSAS-Avionics-Flight_Computer_Mounting_Bracket_2;
FILE=PSAS-Avionics-Flight_Computer_Mounting_Bracket_2.x_t;
DATE=Fri Mar 30 21:07:44 2012;
**PART2;
SCH=SCH_2201256_20000;
USFLD_SIZE=0;
**PART3;
**END_OF_HEADER*****************************************************************
T51 : TRANSMIT FILE created by modeller version 220125623 SCH_2201256_20000_1300
6186 0 12 27 CCCCCCCCCCCCCCCCCCCCCCCA16 index_map_offset0 0 1 dA9 index_map82 0
 A17 node_id_index_map82 0 A20 schema_embedding_map82 0 Z1 2214 2 3 0 0 0 0 1e3
 1e-8 0 4 0 1 0 1 1 5 6 7 8 9 10 11 0 0 0 0 81 255 2 2 1979 12 1 0 0 0 0 13 0 70
 11 CI9 list_type0 0 1 uI10 notransmit0 0 1 lCCCDCCDI12 finger_index0 0 1 dI12 f
inger_block1012 0 CZ3 0 4 T1 0 0 3 20 1 14 14 13 255 5 174 0 1 0 15 0 0 16 0 51
 255 6 1944 0 17 18 0 0 +.065278 -.007112 -.041275 0 0 -1 .003302 10507107667939
48e-31 1 0 31 255 7 1839 0 10 19 0 0 +.065278 -.007112 -.036195 0 0 1 -105071076
6793948e-31 -1 0 .003302 29 255 8 1770 0 11 20 0 .06858 -.007112 -.036195 19 255
 9 52 0 1 16 0 21 V16 255 10 1814 0 ?22 0 23 7 0 0 1 18 255 11 1768 0 24 0 25 8
 ?1 17 255 24 0 26 27 28 11 29 30 0 31 +18 25 1765 0 32 11 33 20 ?1 17 32 0 34 3
5 36 25 37 23 0 28 +18 33 1757 0 38 25 39 40 ?1 29 20 1767 0 25 40 8 .06858 -.00
7112 -.028575 29 40 1759 0 33 41 20 .0794995567884187 -.003175 -.028575 29 41 17
56 0 39 42 40 .0794995567884187 -.003175 -.036195 18 39 1754 0 43 33 44 41 ?1 29
 42 1743 0 44 45 41 .01720772549455375 -.00381 -.028575 18 44 1741 0 46 39 47 42
 ?1 29 45 1740 0 47 48 42 .065278 -.00381 -.028575 18 47 1738 0 37 44 49 45 ?1 2
9 48 1737 0 49 50 45 .01720772549455375 -.00381 -.036195 18 49 1735 0 51 47 52 4
8 ?1 29 50 1734 0 52 53 48 .065278 -.00381 -.036195 18 52 1732 0 22 49 54 50 ?1
 29 53 1724 0 54 55 50 .008255 -.00762 -.028575 18 54 1722 0 56 52 57 53 ?1 29 5
5 1716 0 57 58 53 .01146787410273108 -.00508 -.036195 18 57 1714 0 59 54 60 55 ?
1 29 58 1713 0 60 61 55 .01146787410273108 -.00508 -.028575 18 60 1711 0 62 57 6
3 58 ?1 29 61 1395 0 63 64 58 0 0 -.036195 18 63 1393 0 65 60 66 61 ?1 29 64 527
 0 66 67 61 .06858 -.00762 -.036195 18 66 525 0 27 63 68 64 ?1 29 67 245 0 68 69
 64 .0762 -780625564189563e-32 -.036195 18 68 243 0 70 66 71 67 ?1 29 69 130 0 7
1 72 67 .09398 -.00762 -.023495 18 71 113 0 73 68 74 69 ?1 29 72 131 0 74 75 69
 .08636 -.00762 -.023495 18 74 114 0 76 71 77 72 ?1 29 75 132 0 77 78 72 .08636
 -.00762 -.028575 18 77 115 0 79 74 80 75 ?1 29 78 473 0 80 81 75 .08636 -.00317
5 -.028575 18 80 374 0 82 77 83 78 ?1 29 81 479 0 83 84 78 .08636 -.003175 -.023
495 18 83 375 0 85 80 86 81 ?1 29 84 483 0 86 87 81 .0762 -780625564189563e-32 -
.028575 18 86 381 0 88 83 89 84 ?1 29 87 490 0 89 90 84 .09398 -.003175 -.023495
 18 89 384 0 91 86 92 87 ?1 29 90 688 0 92 93 87 .06858 -.00762 -.028575 18 92 6
09 0 94 89 95 90 ?1 29 93 817 0 96 97 90 .008255 0 -.028575 18 96 763 0 98 99 10
0 93 ?1 29 97 819 0 95 101 93 0 -.00762 -.0254 18 95 769 0 102 92 103 97 ?1 29 1
01 820 0 103 104 97 0 0 -.0254 18 103 768 0 105 95 106 101 ?1 29 104 821 0 106 1
07 101 .008255 0 -.0254 18 106 767 0 108 103 99 104 ?1 29 107 822 0 99 109 104 .
008255 -.00762 -.0254 18 99 764 0 110 106 96 107 ?1 29 109 1107 0 100 111 107 .0
14605 -.00508 -.028575 18 100 1059 0 112 96 113 109 ?1 29 111 1108 0 113 114 109
 .014605 -.00508 -.036195 18 113 1058 0 115 100 116 111 ?1 29 114 1660 0 116 117
 111 .09398 -.003175 -.036195 18 116 1531 0 118 113 119 114 ?1 29 117 1661 0 119
 120 114 .008255 -.00762 -.036195 18 119 1516 0 121 116 122 117 ?1 29 120 1665 0
 122 123 117 0 -.00762 -.036195 18 122 1517 0 124 119 125 120 ?1 29 123 1666 0 1
25 0 120 .09398 -.00762 -.036195 18 125 1532 0 126 122 0 123 ?1 17 126 0 127 128
 129 125 130 131 0 132 -15 255 127 76 0 126 133 0 17 128 0 127 134 126 71 135 13
6 0 0 -17 129 0 127 126 137 66 94 138 0 130 +17 130 0 139 31 132 66 126 131 0 0
 +16 131 77 0 ?130 140 136 141 0 0 1 17 132 0 139 130 118 125 142 143 0 135 +15
 139 142 0 31 144 0 17 118 0 139 132 43 116 145 146 0 142 -17 142 0 147 148 135
 116 132 143 0 149 -16 143 1494 0 ?132 150 151 152 0 0 1 17 135 0 147 142 73 125
 128 136 0 0 +15 147 281 0 135 153 0 17 73 0 147 135 148 71 154 155 0 156 +16 13
6 89 0 ?135 131 157 158 0 0 1 16 157 93 0 ?156 136 159 160 0 0 1 30 255 158 121
 0 136 160 141 0 +.09398 -.00762 -.041275 0 0 -1 30 160 122 0 157 161 158 0 +.08
636 -.00762 -.023495 1 -1050710766793946e-31 0 30 141 118 0 131 158 162 0 +0 -.0
0762 -.036195 -1 1050710766793948e-31 0 30 162 162 0 155 141 163 0 +.09398 -9540
97911787244e-32 -.023495 -1050710766793946e-31 -1 0 16 155 278 0 ?73 164 165 162
 0 0 1 30 163 163 0 164 162 166 0 +.08636 -867361737988404e-32 -.023495 -1050710
766793946e-31 -1 0 16 164 286 0 ?76 167 155 163 0 0 1 30 166 164 0 167 163 168 0
 +.08636 -867361737988404e-32 -.028575 -1050710766793946e-31 -1 0 16 167 294 0 ?
169 170 164 166 0 0 1 30 168 248 0 170 166 171 0 +.0762 -780625564189563e-32 -.0
28575 0 0 1 16 170 246 0 ?172 146 167 168 0 0 1 30 171 257 0 146 168 173 0 +0 -.
003175 -.036195 -1 1050710766793948e-31 0 16 146 255 0 ?145 138 170 171 0 0 1 30
 173 539 0 138 171 174 0 +.06858 -.00762 -.028575 0 0 -1 16 138 537 0 ?129 175 1
46 173 0 0 1 30 174 544 0 176 173 177 0 +.008255 -.00762 -.028575 0 0 1 16 176 1
419 0 ?178 179 175 174 175 175 1 30 177 553 0 179 174 180 0 +0 -.00381 -.036195
 -1 -995410200120575e-32 0 16 179 1733 0 ?181 182 176 177 0 0 1 31 180 1261 0 18
3 177 184 0 +.0120523 -.00254 -.036195 0 0 1 -1050710766793948e-31 -1 0 .0011302
99999999986 16 183 1277 0 ?185 186 187 180 0 0 1 30 184 1719 0 182 180 188 0 +.0
1146787410273108 -.00508 -.028575 0 0 -1 16 182 1717 0 ?189 190 179 184 0 0 1 30
 188 1746 0 190 184 191 0 +.065278 -.00381 -.028575 0 0 1 16 190 1744 0 ?192 193
 182 188 0 0 1 30 191 1751 0 193 188 194 0 +.01720772549455375 -.00381 -.041275
 0 0 -1 16 193 1749 0 ?51 195 190 191 0 0 1 30 194 1762 0 195 191 196 0 +.079499
5567884187 -.003175 -.028575 0 0 1 16 195 1760 0 ?197 30 193 194 0 0 1 30 196 17
73 0 30 194 198 0 -.06858 -.007112 -.036195 0 0 1 16 30 1771 0 ?24 199 195 196 0
 0 1 31 198 1832 0 199 196 200 0 +.01146787410273108 -.008382 -.036195 0 0 1 -10
50710766793948e-31 -1 0 .003302 16 199 1776 0 ?121 201 30 198 0 0 1 31 200 1833
 0 201 198 202 0 +.01146787410273108 -.008382 -.028575 0 0 -1 1050710766793948e-
31 1 0 .003302 16 201 1782 0 ?62 203 199 200 0 0 1 31 202 1834 0 203 200 204 0 +
.01720772549455375 -.007112 -.028575 0 0 -1 1050710766793948e-31 1 0 .003302 16
 203 1787 0 ?46 205 201 202 0 0 1 31 204 1835 0 205 202 206 0 +.0172077254945537
5 -.007112 -.036195 0 0 1 -1050710766793948e-31 -1 0 .003302 16 205 1792 0 ?115
 207 203 204 0 0 1 31 206 1836 0 207 204 208 0 +.0794995567884187 .0001269999999
999916 -.028575 0 0 -1 1050710766793948e-31 1 0 .003302 16 207 1798 0 ?88 209 20
5 206 0 0 1 31 208 1837 0 209 206 19 0 +.0794995567884187 .0001269999999999916 -
.036195 0 0 1 -1050710766793948e-31 -1 0 .003302 16 209 1803 0 ?43 23 207 208 0
 0 1 31 19 1838 0 23 208 7 0 +.065278 -.007112 -.028575 0 0 -1 1050710766793948e
-31 1 0 .003302 16 23 1809 0 ?32 10 209 19 0 0 1 17 43 0 139 118 210 39 211 209
 0 145 +17 210 0 139 43 212 68 65 165 0 211 -17 211 0 213 172 214 68 43 209 0 0
 -17 145 0 215 197 149 39 118 146 0 214 +15 215 1382 0 145 216 217 17 197 0 215
 82 145 33 214 195 0 218 +17 149 0 215 145 91 116 148 219 0 0 +17 214 0 213 211
 38 39 197 195 0 0 -15 213 1912 0 211 220 0 17 38 0 213 214 172 33 88 207 0 197
 -17 172 0 213 38 211 86 70 170 0 0 +17 88 0 34 221 218 86 38 207 0 222 +15 34 7
27 0 56 223 0 17 221 0 34 56 88 96 222 224 0 0 -17 218 0 34 88 225 33 82 226 0 0
 -17 222 0 227 70 228 86 221 224 0 172 +15 227 1397 0 65 229 230 17 70 0 227 65
 222 68 172 170 0 210 -17 228 0 227 222 231 96 232 233 0 221 +16 224 724 0 ?222
 165 140 234 0 0 1 16 165 244 0 ?65 155 224 235 0 0 1 16 140 1394 0 ?105 224 131
 236 0 0 1 30 234 8 0 224 236 235 0 +0 0 -.028575 1 -1050710766793948e-31 0 30 2
36 5 0 140 237 234 0 +0 0 -.036195 0 0 1 30 235 26 0 165 234 238 0 +0 0 -.036195
 -1 1050710766793948e-31 0 30 238 125 0 239 235 240 0 +0 -.00762 -.036195 0 0 1
 16 239 1404 0 ?102 241 226 238 0 0 1 30 240 124 0 241 238 161 0 +0 -.00762 -.02
8575 1 -1050710766793948e-31 0 16 241 535 0 ?79 159 239 240 0 0 1 30 161 123 0 1
59 240 160 0 +.08636 -.00762 -.028575 0 0 1 16 159 97 0 ?242 157 241 161 0 0 1 1
7 242 0 243 244 169 74 245 159 0 134 +15 243 297 0 246 247 0 17 244 0 243 246 24
2 83 76 164 0 0 -17 169 0 243 242 246 77 225 167 0 245 +17 245 0 127 137 134 77
 242 159 0 0 -17 134 0 127 245 128 74 156 157 0 0 -17 156 0 248 154 76 71 134 15
7 0 128 +15 248 289 0 249 250 0 17 154 0 248 249 156 89 73 155 0 0 -17 76 0 248
 156 249 74 244 164 0 242 +17 249 0 248 76 154 83 91 251 0 244 -17 91 0 215 149
 85 89 249 251 0 148 +16 251 337 0 ?91 219 252 253 0 0 1 16 219 354 0 ?149 254 2
51 255 0 0 1 16 252 578 0 ?31 251 256 257 0 0 1 30 253 470 0 251 257 255 0 +.093
98 -.003175 -.023495 1 -1050710766793948e-31 -1951319995474475e-31 30 257 668 0
 252 258 253 0 +.06858 555111512312578e-31 -.036195 -805544921208693e-30 1 0 30
 255 469 0 219 253 259 0 +.09398 -.003175 -.041275 0 0 -1 30 259 451 0 254 255 2
37 0 +.08636 -.003175 -.028575 0 0 1 16 254 309 0 ?85 226 219 259 0 0 1 30 237 4
50 0 226 259 236 0 +0 -.003175 -.028575 1 -1050710766793948e-31 0 16 226 1758 0
 ?82 239 254 237 0 0 1 17 82 0 215 85 197 80 218 226 0 246 +17 85 0 215 91 82 83
 246 254 0 249 +17 246 0 243 169 244 80 85 254 0 225 -17 225 0 34 218 79 80 169
 167 0 0 -17 79 0 34 225 35 77 137 241 0 169 +17 35 0 34 79 32 92 28 260 0 137 -
17 137 0 127 129 245 92 79 241 0 0 -17 28 0 26 24 94 25 35 260 0 29 +16 260 599
 0 ?28 256 233 261 0 0 1 16 256 1739 0 ?262 252 260 258 0 0 1 16 233 746 0 ?228
 260 263 264 0 0 1 30 261 675 0 260 264 258 0 +.06858 -.00762 -.028575 -80554492
1208693e-30 1 0 30 264 803 0 233 265 261 0 +.008255 0 -.0254 0 0 -1 30 258 674 0
 256 261 257 0 +.06858 -.00381 -.028575 -1 -995410200120575e-32 0 30 265 808 0 2
66 267 264 0 +.008255 -.00762 -.028575 1050710766793948e-31 1 0 16 266 739 0 ?98
 268 269 265 0 0 1 30 267 810 0 263 270 265 0 +0 -.00762 -.0254 -105071076679394
8e-31 -1 0 16 263 760 0 ?271 233 272 267 0 0 1 30 270 811 0 272 273 267 0 +.0082
55 0 -.0254 -1 0 0 16 272 757 0 ?274 263 275 270 0 0 1 30 273 812 0 275 276 270
 0 +.008255 -.00762 -.0254 1050710766793948e-31 1 0 16 275 754 0 ?108 272 268 27
3 0 0 1 30 276 813 0 268 277 273 0 +.008255 -.00762 -.0254 1 -877540596141572e-3
0 0 16 268 751 0 ?278 275 266 276 0 0 1 30 277 1099 0 269 279 276 0 +.014605 -.0
0508 -.028575 0 0 1 16 269 1050 0 ?280 266 281 277 0 0 1 30 279 1100 0 281 282 2
77 0 +.008255 -.00508 -.036195 1 -367748768377881e-31 0 16 281 1715 0 ?283 269 2
84 279 0 0 1 30 282 1102 0 284 285 279 0 +.008255 -.00508 -.028575 -1 3677487683
77881e-31 0 16 284 1041 0 ?286 281 287 282 0 0 1 31 285 1176 0 287 288 282 0 +.0
04445 -.00762 -.029845 1050710766793948e-31 1 0 0 0 1 .0017 16 287 1150 0 ?289 2
84 290 285 0 0 1 31 288 1177 0 290 291 285 0 +.004445 -.00145 -.029845 105071076
6793948e-31 1 0 0 0 1 .0017 16 290 1151 0 ?292 287 293 288 0 0 1 31 291 1178 0 2
93 294 288 0 +.004445 1734723475976805e-33 -.029845 1050710766793948e-31 1 0 0 0
 1 .00315 16 293 1149 0 ?295 290 296 291 0 0 1 31 294 1232 0 296 297 291 0 +.090
17 -.00762 -.02667 1050710766793948e-31 1 0 0 0 1 .0017 16 296 1206 0 ?298 293 2
99 294 0 0 1 31 297 1233 0 299 300 294 0 +.09017 -.004625 -.02667 10507107667939
48e-31 1 0 0 0 1 .0017 16 299 1207 0 ?301 296 186 297 0 0 1 31 300 1234 0 186 30
2 297 0 +.09017 -.003175 -.02667 1050710766793948e-31 1 0 0 0 1 .00315 16 186 12
05 0 ?303 299 183 300 0 0 1 31 302 1306 0 187 304 300 0 +.0120523 -.00254 -.0285
75 0 0 1 -1050710766793948e-31 -1 0 .001130299999999986 16 187 1278 0 ?305 183 3
06 302 0 0 1 31 304 1355 0 306 307 302 0 +.0730123 -.00254 -.036195 0 0 1 -10507
10766793948e-31 -1 0 .001130299999999986 16 306 1327 0 ?308 187 309 304 0 0 1 31
 307 1357 0 309 152 304 0 +.0730123 -.00254 -.028575 0 0 1 -1050710766793948e-31
 -1 0 .001130299999999986 16 309 1328 0 ?310 306 150 307 0 0 1 30 152 1634 0 143
 311 307 0 +.09398 -780625564189563e-32 -.036195 -1050710766793946e-31 -1 0 30 3
11 1635 0 150 312 152 0 +0 1734723475976805e-33 -.036195 -1050710766793946e-31 -
1 0 16 150 1468 0 ?313 309 143 311 0 0 1 30 312 1638 0 151 0 311 0 +.09398 -.007
62 -.036195 -1 1050710766793948e-31 0 16 151 1457 0 ?124 143 0 312 0 0 1 17 124
 0 139 212 121 122 314 151 0 313 +17 212 0 139 210 124 63 313 150 0 315 -17 121
 0 139 124 316 119 59 199 0 314 +17 314 0 317 178 318 119 124 151 0 319 -17 313
 0 320 102 315 122 212 150 0 318 +15 320 156 0 315 321 0 17 102 0 320 322 313 95
 318 239 0 271 +17 315 0 320 313 322 63 105 140 0 0 -17 318 0 317 314 323 122 10
2 239 0 0 -15 317 538 0 318 324 0 17 323 0 317 318 110 95 278 268 0 0 -17 110 0
 317 323 178 99 325 175 0 326 +17 278 0 327 108 271 99 323 268 0 0 +15 327 790 0
 278 328 0 17 108 0 327 274 278 106 326 275 0 232 +17 271 0 327 278 274 95 322 2
63 0 323 +17 274 0 327 271 108 103 231 272 0 322 +17 322 0 320 315 102 103 271 2
63 0 0 -17 231 0 227 228 105 106 274 272 0 0 -17 105 0 227 231 65 103 315 140 0
 274 +17 65 0 227 105 70 63 210 165 0 212 +17 326 0 329 325 232 99 108 275 0 278
 -17 232 0 329 326 98 106 228 233 0 231 -15 329 1007 0 325 330 0 17 98 0 329 232
 325 96 56 266 0 228 +17 325 0 329 98 326 54 110 175 0 178 -17 56 0 34 62 221 54
 98 266 0 325 -17 62 0 34 331 56 60 332 201 0 286 +17 331 0 34 46 62 100 286 284
 0 0 -17 332 0 333 319 334 54 62 201 0 0 -17 286 0 335 189 280 60 331 284 0 334
 +15 335 1079 0 286 336 0 17 189 0 335 283 286 57 334 182 0 316 +17 280 0 335 28
6 283 100 337 269 0 331 +17 334 0 333 332 59 60 189 182 0 0 -15 333 1870 0 332 3
38 0 17 59 0 333 334 319 57 121 199 0 189 -17 319 0 333 59 332 119 178 176 0 0 -
17 178 0 317 110 314 54 319 176 0 332 +14 255 338 1869 339 ?340 341 333 5 342 -0
 0 340 341 21 81 1 339 2148 343 338 0 0 344 345 346 14 340 1890 345 ?220 338 347
 5 348 -0 0 220 338 21 14 341 1331 344 ?338 349 350 5 351 -0 0 338 349 21 51 342
 1881 0 338 352 348 0 +.01146787410273108 -.008382 -.041275 0 0 -1 .003302 10507
10766793948e-31 1 0 13 21 53 0 0 0 0 0 0 9 15 14 15 1022 353 ?330 0 354 5 355 -0
 0 330 0 21 81 1 353 2127 343 15 0 0 0 356 357 14 330 1009 356 ?223 15 329 5 358
 -0 0 223 15 21 15 354 1020 0 262 15 0 50 255 355 662 0 15 358 359 0 +.06858 -.0
0381 -.041275 -995410200120575e-32 1 0 -1 -995410200120575e-32 0 50 358 663 0 33
0 360 355 0 +.008255 -.00762 -.041275 -1 -3537392914872955e-30 0 353739291487295
5e-30 -1 0 50 359 661 0 361 355 362 0 +.06858 -.00762 -.041275 1 805544921208693
e-30 0 -805544921208693e-30 1 0 14 361 632 363 ?328 216 26 5 359 -0 0 328 216 21
 50 362 449 0 216 359 364 0 +.0762 -.003175 -.041275 1050710766793948e-31 1 0 0
 0 1 14 216 392 365 ?361 133 215 5 362 +0 0 361 133 21 50 364 2 0 229 362 366 0
 +0 0 -.028575 1050710766793948e-31 1 0 0 0 1 14 229 1 367 ?133 144 227 5 364 +0
 0 133 144 21 50 366 117 0 133 364 368 0 +0 -.00762 -.028575 1050710766793948e-3
1 1 0 0 0 1 14 133 75 369 ?216 229 370 5 366 -324 324 216 229 21 50 368 166 0 14
4 366 371 0 +0 0 -.036195 0 0 1 -1050710766793948e-31 -1 0 14 144 143 372 ?229 3
21 373 5 368 -0 0 229 321 21 50 371 169 0 153 368 374 0 +.09398 -954097911787244
e-32 -.041275 -1 1050710766793948e-31 0 -1050710766793948e-31 -1 0 14 153 283 37
5 ?321 250 147 5 371 -0 0 321 250 21 50 374 170 0 250 371 376 0 +.08636 -8673617
37988404e-32 -.023495 0 0 -1 1050710766793948e-31 1 0 14 250 291 377 ?153 247 24
8 5 374 -0 0 153 247 21 50 376 171 0 247 374 378 0 +.08636 -867361737988404e-32
 -.028575 1 -1050710766793946e-31 0 1050710766793948e-31 1 0 14 247 298 379 ?250
 324 243 5 376 -0 0 250 324 21 50 378 172 0 223 376 352 0 +0 0 -.028575 0 0 -1 1
050710766793948e-31 1 0 14 223 729 380 ?324 330 381 5 378 -0 0 324 330 21 50 352
 173 0 321 378 342 0 +0 0 -.036195 1 -1050710766793948e-31 0 1050710766793948e-3
1 1 0 14 321 157 382 ?144 153 320 5 352 -0 0 144 153 21 81 1 382 2134 343 321 0
 0 375 372 383 80 255 1 343 0 384 8001 0 0 0 0 3 5 0 0 0 FFFFTFTFFFFFFF2 81 1 37
5 2133 343 153 0 0 377 382 385 81 1 372 2135 343 144 0 0 382 367 386 83 255 3 38
3 .866666666666667 .909803921568627 1 81 1 367 2136 343 229 0 0 372 369 387 83 3
 386 .866666666666667 .909803921568627 1 81 1 369 2137 343 133 0 0 367 365 388 8
3 3 387 .866666666666667 .909803921568627 1 81 1 365 2138 343 216 0 0 369 363 38
9 83 3 388 .866666666666667 .909803921568627 1 81 1 363 2139 343 361 0 0 365 390
 391 83 3 389 .866666666666667 .909803921568627 1 81 1 390 2140 343 328 0 0 363
 392 393 83 3 391 .866666666666667 .909803921568627 1 14 328 788 390 ?336 361 32
7 5 360 -0 0 336 361 21 81 1 392 2141 343 336 0 0 390 394 395 83 3 393 .86666666
6666667 .909803921568627 1 14 336 1077 392 ?396 328 335 5 397 -0 0 396 328 21 81
 1 394 2142 343 396 0 0 392 398 399 83 3 395 .866666666666667 .909803921568627 1
 14 396 1160 394 ?400 336 401 5 402 -0 0 400 336 21 81 1 398 2143 343 400 0 0 39
4 403 404 83 3 399 .866666666666667 .909803921568627 1 14 400 1165 398 ?405 396
 406 5 407 -0 0 405 396 21 81 1 403 2144 343 405 0 0 398 408 409 83 3 404 .86666
6666666667 .909803921568627 1 14 405 1216 403 ?410 400 411 5 412 -0 0 410 400 21
 81 1 408 2145 343 410 0 0 403 413 414 83 3 409 .866666666666667 .90980392156862
7 1 14 410 1221 408 ?349 405 415 5 416 -0 0 349 405 21 81 1 413 2146 343 349 417
 0 408 344 418 83 3 414 .866666666666667 .909803921568627 1 14 349 1281 413 ?341
 410 419 5 420 -0 0 341 410 21 81 3 417 1978 421 349 0 413 422 0 423 0 0 81 1 34
4 2147 343 341 422 0 413 339 424 83 3 418 .866666666666667 .909803921568627 1 81
 3 422 1977 421 341 0 344 0 417 425 0 0 83 3 424 .866666666666667 .9098039215686
27 1 80 3 421 426 427 9000 0 0 0 0 3 5 0 0 0 FFFFTFFFFFFFFF5 5 5 86 255 3 425 1
 0 0 .0019304 -.0209677 .00508 1e100 1e100 1e100 79 255 12 427 TexSplitFace86 3
 423 1 0 0 .0019304 -.0819277 .00508 1e100 1e100 1e100 15 419 1284 0 305 349 428
 51 420 1304 0 349 351 416 0 +.0120523 -.00254 -.028575 0 0 1 .00113029999999998
6 -1050710766793948e-31 -1 0 51 351 1354 0 341 0 420 0 +.0730123 -.00254 -.02857
5 0 0 1 .001130299999999986 -1050710766793948e-31 -1 0 52 255 416 1231 0 410 420
 412 0 +.09017 -.003175 -.02667 1050710766793948e-31 1 0 .00315 .707106781186548
 .707106781186547 0 0 1 51 412 1230 0 405 416 407 0 +.09017 -.003175 -.02667 105
0710766793948e-31 1 0 .0017 0 0 1 52 407 1175 0 400 412 402 0 +.004445 173472347
5976805e-33 -.029845 1050710766793948e-31 1 0 .00315 .707106781186548 .707106781
186547 0 0 1 51 402 1174 0 396 407 397 0 +.004445 0 -.029845 1050710766793948e-3
1 1 0 .0017 0 0 1 50 397 1090 0 336 402 360 0 +.014605 -.00508 -.028575 36774876
8377881e-31 1 0 -1 367748768377881e-31 0 50 360 801 0 328 397 358 0 +0 -.00762 -
.0254 0 0 -1 1050710766793948e-31 1 0 17 305 0 419 305 305 0 429 187 0 0 +15 428
 1285 0 430 349 0 17 430 0 428 430 430 0 185 183 0 0 -17 185 0 431 185 185 0 430
 183 0 0 +15 431 1259 0 185 144 139 17 429 0 432 429 429 0 305 187 0 0 -15 432 1
268 0 429 223 34 15 415 1224 0 433 410 434 17 433 0 415 433 433 0 301 299 0 0 -1
5 434 1225 0 303 410 0 17 303 0 434 303 303 0 435 186 0 0 +17 435 0 217 435 435
 0 303 186 0 0 -15 217 1192 0 435 216 0 17 301 0 436 301 301 0 433 299 0 0 +15 4
36 1220 0 301 405 0 15 411 1219 0 437 405 436 17 437 0 411 437 437 0 298 296 0 0
 -17 298 0 370 298 298 0 437 296 0 0 +15 370 1198 0 298 133 127 15 406 1168 0 43
8 400 439 17 438 0 406 438 438 0 292 290 0 0 -15 439 1169 0 295 400 0 17 295 0 4
39 295 295 0 440 293 0 0 +17 440 0 230 440 440 0 295 293 0 0 -15 230 1132 0 440
 229 0 17 292 0 441 292 292 0 438 290 0 0 +15 441 1164 0 292 396 0 15 401 1163 0
 442 396 441 17 442 0 401 442 442 0 289 287 0 0 -17 289 0 443 289 289 0 442 287
 0 0 +15 443 1140 0 289 324 317 14 324 540 444 ?247 223 443 5 366 -133 133 247 2
23 21 81 1 444 2130 343 324 0 0 380 379 445 81 1 380 2129 343 223 0 0 356 444 44
6 81 1 379 2131 343 247 0 0 444 377 447 83 3 445 .866666666666667 .9098039215686
27 1 81 1 377 2132 343 250 0 0 379 375 448 83 3 447 .866666666666667 .9098039215
68627 1 83 3 448 .866666666666667 .909803921568627 1 81 1 356 2128 343 330 0 0 3
53 380 449 83 3 446 .866666666666667 .909803921568627 1 83 3 449 .86666666666666
7 .909803921568627 1 83 3 385 .866666666666667 .909803921568627 1 79 15 384 SDL/
TYSA_COLOUR15 381 1310 0 450 223 432 17 450 0 381 450 450 0 310 309 0 0 -17 310
 0 350 310 310 0 450 309 0 0 +15 350 1334 0 310 341 451 15 451 1335 0 452 341 0
 17 452 0 451 452 452 0 308 306 0 0 -17 308 0 373 308 308 0 452 306 0 0 +15 373
 1319 0 308 144 431 15 26 635 0 28 361 0 17 262 0 354 51 192 44 36 256 0 453 +17
 51 0 354 454 262 49 453 193 0 181 +17 192 0 354 262 454 47 455 190 0 36 +17 36
 0 34 32 46 47 262 256 0 0 -17 453 0 347 112 456 44 51 193 0 0 -15 347 1891 0 45
6 340 0 17 112 0 347 337 453 100 46 203 0 280 -17 456 0 347 453 337 49 115 205 0
 0 -17 337 0 347 456 112 113 280 269 0 0 -17 115 0 139 316 181 113 456 205 0 283
 +17 316 0 139 121 115 57 283 281 0 0 -17 181 0 139 115 22 49 454 179 0 456 +17
 283 0 335 280 189 113 316 281 0 337 +17 22 0 139 181 31 52 457 10 0 454 +17 454
 0 354 192 51 52 181 179 0 455 -17 455 0 458 457 37 52 192 190 0 0 -15 458 1933
 0 457 17 0 17 457 0 458 29 455 11 22 10 0 0 -17 37 0 458 455 29 47 32 23 0 192
 -17 29 0 458 37 457 25 24 30 0 0 -14 17 1932 459 ?0 220 458 5 6 -0 0 0 220 21 8
1 1 459 2151 343 17 0 0 460 0 461 14 220 1911 460 ?17 340 213 5 18 -0 0 17 340 2
1 81 1 460 2150 343 220 0 0 345 459 462 51 18 1923 0 220 348 6 0 +.0794995567884
187 .0001269999999999916 -.041275 0 0 -1 .003302 1050710766793948e-31 1 0 51 348
 1902 0 340 342 18 0 +.01720772549455375 -.007112 -.028575 0 0 -1 .003302 105071
0766793948e-31 1 0 81 1 345 2149 343 340 0 0 339 460 463 83 3 462 .8666666666666
67 .909803921568627 1 83 3 463 .866666666666667 .909803921568627 1 83 3 461 .866
666666666667 .909803921568627 1 17 31 0 139 22 130 11 27 252 0 457 +17 27 0 26 9
4 24 66 31 252 0 129 -17 94 0 26 28 27 92 129 138 0 35 -17 46 0 34 36 331 44 112
 203 0 262 +83 3 357 .866666666666667 .909803921568627 1 83 3 346 .8666666666666
67 .909803921568627 1 16 175 1723 0 ?110 176 138 174 176 176 1 17 148 0 147 73 1
42 89 149 219 0 154 -19 16 175 0 1 0 9 5 S74 4 CI16 index_map_offset0 0 1 dCCZ20
 14 3 0 0 417 2 459 0 0 0 0 0 0 0 0 0 0 0 0 0 0 0 0 0 80 2 12 464 465 8004 0 0 0
 0 3 5 0 0 0 FFTFFFFFFFFFFF2 3 83 1 13 27e2 79 16 465 SDL/TYSA_DENSITY1 0 
