**ABCDEFGHIJKLMNOPQRSTUVWXYZabcdefghijklmnopqrstuvwxyz**************************
**PARASOLID !"#$%&'()*+,-./:;<=>?@[\]^_`{|}~0123456789**************************
**PART1;
MC=x86;
MC_MODEL=x86 Family 6 Model 23 Stepping 6, GenuineIntel;
MC_ID=unknown;
OS=Windows_NT;
OS_RELEASE=unknown;
FRU=Parasolid Version 22.1, build 256, 12- 1-2010;
APPL=SolidWorks 2011-2011006;
SITE=;
USER=unknown;
FORMAT=text;
GUISE=transmit;
KEY=PSAS-Avionics-Flight_Computer_Mounting_Bracket_1;
FILE=PSAS-Avionics-Flight_Computer_Mounting_Bracket_1.x_t;
DATE=Fri Mar 30 21:08:04 2012;
**PART2;
SCH=SCH_2201256_20000;
USFLD_SIZE=0;
**PART3;
**END_OF_HEADER*****************************************************************
T51 : TRANSMIT FILE created by modeller version 220125623 SCH_2201256_20000_1300
6186 0 12 27 CCCCCCCCCCCCCCCCCCCCCCCA16 index_map_offset0 0 1 dA9 index_map82 0
 A17 node_id_index_map82 0 A20 schema_embedding_map82 0 Z1 2193 2 3 0 0 0 0 1e3
 1e-8 0 4 0 1 0 1 1 5 6 7 8 9 10 11 0 0 0 0 81 255 2 2 1977 12 1 0 0 0 0 13 0 70
 11 CI9 list_type0 0 1 uI10 notransmit0 0 1 lCCCDCCDI12 finger_index0 0 1 dI12 f
inger_block1012 0 CZ3 0 4 T1 0 0 3 20 1 14 14 13 255 5 174 0 1 0 15 0 0 16 0 51
 255 6 1942 0 17 18 0 0 +.0794995567884187 -.007747 -.023495 1050710766793948e-3
1 -826636589424463e-31 1 .003302 -772469519462177e-30 -1 -826636589424462e-31 31
 255 7 1837 0 10 19 0 0 +.0794995567884187 -.007747 -.028575 -1050710766793946e-
31 826636589424462e-31 -1 772469519462177e-30 1 826636589424462e-31 .003302 29 2
55 8 1768 0 11 20 0 .0794995567884187 -.00444500000000006 -.028575 19 255 9 52 0
 1 16 0 21 V16 255 10 1813 0 ?22 0 23 7 0 0 1 18 255 11 1766 0 22 0 24 8 ?1 17 2
55 22 0 25 26 27 11 28 10 0 29 +18 24 1763 0 30 11 31 20 ?1 17 30 0 32 33 34 24
 35 23 0 36 -18 31 1755 0 37 24 38 39 ?1 29 20 1765 0 24 39 8 .0794995567884187
 -.00444500000000006 -.036195 29 39 1757 0 31 40 20 .06858 -.000508000000000056
 -.028575 29 40 1754 0 38 41 39 .06858 -.000508000000000055 -.036195 18 38 1752
 0 42 31 43 40 ?1 29 41 1741 0 43 44 40 .01720772549455375 -.00381 -.036195 18 4
3 1739 0 45 38 46 41 ?1 29 44 1738 0 46 47 41 .065278 -.00381000000000005 -.0361
95 18 46 1736 0 48 43 49 44 ?1 29 47 1735 0 49 50 44 .01720772549455375 -.00381
 -.028575 18 49 1733 0 51 46 52 47 ?1 29 50 1732 0 52 53 47 .065278 -.0038100000
0000005 -.028575 18 52 1730 0 54 49 55 50 ?1 29 53 1722 0 55 56 50 .008255 -7125
22469871414e-32 -.028575 18 55 1720 0 57 52 58 53 ?1 29 56 1714 0 58 59 53 .0114
6787410273108 -.00254 -.028575 18 58 1712 0 60 55 61 56 ?1 29 59 1711 0 61 62 56
 .01146787410273108 -.00254 -.036195 18 61 1709 0 63 58 64 59 ?1 29 62 1380 0 64
 65 59 .09398 -.00444500000000007 -.036195 18 64 1378 0 66 61 67 62 ?1 29 65 855
 0 67 68 62 .008255 -.00762 -.028575 18 67 853 0 69 64 70 65 ?1 29 68 527 0 70 7
1 65 .06858 -5372444846027e-29 -.028575 18 70 525 0 72 67 73 68 ?1 29 71 245 0 7
3 74 68 .0762 -.00762 -.028575 18 73 243 0 75 70 76 71 ?1 29 74 127 0 76 77 71 .
08636 -674589565163075e-31 -.028575 18 76 110 0 78 73 79 74 ?1 29 77 128 0 79 80
 74 .08636 -678788879037351e-31 -.023495 18 79 111 0 81 76 82 77 ?1 29 80 129 0
 82 83 77 .09398 -737651056420369e-31 -.023495 18 82 112 0 84 79 85 80 ?1 29 83
 474 0 85 86 80 .08636 -.004445000000000065 -.028575 18 85 388 0 87 82 88 83 ?1
 29 86 477 0 88 89 83 .08636 -.004445000000000065 -.023495 18 88 373 0 90 85 91
 86 ?1 29 89 483 0 91 92 86 .0762 -.00762 -.036195 18 91 381 0 35 88 93 89 ?1 29
 92 489 0 93 94 89 .09398 -.004445000000000075 -.023495 18 93 383 0 95 91 96 92
 ?1 29 94 688 0 96 97 92 .06858 -530945513791285e-31 -.036195 18 96 609 0 98 93
 99 94 ?1 29 97 949 0 99 100 94 .008255 123259516440783e-46 -.0254 18 99 899 0 1
01 96 102 97 ?1 29 100 950 0 102 103 97 .008255 -.00762 -.0254 18 102 897 0 104
 99 105 100 ?1 29 103 951 0 105 106 100 0 -.00762 -.0254 18 105 895 0 107 102 10
8 103 ?1 29 106 952 0 108 109 103 0 0 -.0254 18 108 893 0 110 105 111 106 ?1 29
 109 1107 0 111 112 106 .014605 -.00254 -.036195 18 111 1059 0 113 108 114 109 ?
1 29 112 1108 0 114 115 109 .014605 -.00254 -.028575 18 114 1058 0 116 111 117 1
12 ?1 29 115 1663 0 117 118 112 .008255 -64953276175727e-31 -.036195 18 117 1536
 0 119 114 120 115 ?1 29 118 1665 0 121 122 115 .09398 -727152771734678e-31 -.03
6195 18 121 1520 0 123 120 124 118 ?1 29 122 1666 0 124 125 118 0 -1185917344124
36e-33 -.036195 18 124 1517 0 126 121 0 122 ?1 29 125 1670 0 120 0 122 0 -.00762
 -.036195 18 120 1513 0 127 117 121 125 ?1 17 127 0 128 126 35 120 129 130 0 131
 -15 255 128 727 0 127 132 0 17 126 0 128 133 127 124 131 134 0 135 +17 35 0 128
 127 136 91 30 23 0 129 +17 129 0 137 75 138 91 127 130 0 34 +16 130 724 0 ?129
 139 140 141 0 0 1 17 131 0 142 107 143 120 126 134 0 138 -15 142 156 0 143 144
 0 17 107 0 142 145 131 105 138 140 0 146 -17 143 0 142 131 145 124 110 147 0 0
 +16 134 1445 0 ?126 148 149 150 0 0 1 17 138 0 137 129 151 120 107 140 0 0 +15
 137 1397 0 138 152 153 17 151 0 137 138 104 105 154 155 0 0 +16 140 4 0 ?138 13
0 156 157 0 0 1 16 156 77 0 ?158 140 159 160 0 0 1 30 255 157 5 0 140 161 141 0
 +0 -.00762 -.028575 -1050710766793946e-31 826636589424462e-31 -1 30 161 450 0 1
62 163 157 0 +0 -.004445 -.036195 1 -772469519462177e-30 -1050710766793948e-31 3
0 141 8 0 130 157 164 0 +0 -.00762 -.036195 1 -772469519462177e-30 -105071076679
3948e-31 30 164 26 0 139 141 165 0 +0 -.00762 -.028575 -1 772469519462177e-30 10
50710766793948e-31 16 139 244 0 ?166 167 130 164 0 0 1 30 165 125 0 147 164 168
 0 +0 -748488815553874e-33 -.028575 -1050710766793946e-31 826636589424462e-31 -1
 16 147 105 0 ?143 169 162 165 0 0 1 30 168 124 0 169 165 170 0 +0 -118591734412
436e-33 -.036195 1 -772469519462177e-30 -1050710766793948e-31 16 169 535 0 ?123
 171 147 168 0 0 1 30 170 121 0 171 168 172 0 +.09398 -737651056420369e-31 -.023
495 1050710766793946e-31 -826636589424462e-31 1 16 171 1386 0 ?84 173 169 170 0
 0 1 30 172 120 0 173 170 174 0 +.08636 -678788879037351e-31 -.023495 -1 7724695
19462177e-30 1050710766793948e-31 16 173 85 0 ?175 159 171 172 0 0 1 30 174 119
 0 159 172 160 0 +.08636 -674589565163075e-31 -.028575 656694229246217e-31 82663
6589424461e-31 -1 16 159 81 0 ?176 156 173 174 0 0 1 30 160 118 0 156 174 177 0
 +0 -748488815553874e-33 -.028575 -1 772469519462177e-30 1050710766793948e-31 30
 177 159 0 167 160 178 0 +.08636 -.00762 -.028575 772469519462177e-30 1 82663658
9424462e-31 16 167 252 0 ?78 179 139 177 0 0 1 30 178 160 0 179 177 180 0 +.0863
6 -.00762 -.023495 772469519462177e-30 1 826636589424462e-31 16 179 263 0 ?81 18
1 167 178 0 0 1 30 180 161 0 181 178 182 0 +.09398 -.00762 -.023495 772469519462
177e-30 1 826636589424462e-31 16 181 270 0 ?183 184 179 180 0 0 1 30 182 248 0 1
84 180 185 0 +.0762 -.00762 -.036195 -1050710766793948e-31 826636589424463e-31 -
1 16 184 246 0 ?34 186 181 182 0 0 1 30 185 257 0 186 182 187 0 +0 -.004445 -.02
8575 -1 772469519462177e-30 1050710766793948e-31 16 186 255 0 ?29 188 184 185 0
 0 1 30 187 539 0 188 185 189 0 +.06858 -530945513791285e-31 -.036195 1050710766
793948e-31 -826636589424463e-31 1 16 188 537 0 ?190 191 186 187 0 0 1 30 189 544
 0 192 187 193 0 +.008255 -64953276175727e-31 -.036195 -1050710766793948e-31 826
636589424463e-31 -1 16 192 542 0 ?194 195 191 189 191 191 1 30 193 553 0 195 189
 196 0 +0 -.00381 -.028575 -1 887494698142777e-30 1050710766793948e-31 16 195 17
31 0 ?197 198 192 193 0 0 1 31 196 1261 0 199 193 200 0 +.0120523 -.00508 -.0285
75 -1050710766793946e-31 826636589424462e-31 -1 772469519462177e-30 1 8266365894
24462e-31 .001130299999999986 16 199 1277 0 ?201 202 203 196 0 0 1 31 200 1312 0
 204 196 205 0 +.0730123 -.00508000000000006 -.028575 -1050710766793946e-31 8266
36589424462e-31 -1 772469519462177e-30 1 826636589424462e-31 .001130299999999986
 16 204 1328 0 ?206 203 207 200 0 0 1 30 205 1717 0 198 200 208 0 +.011467874102
73108 -.00254 -.036195 1050710766793948e-31 -826636589424463e-31 1 16 198 1715 0
 ?209 210 195 205 0 0 1 30 208 1744 0 210 205 211 0 +.065278 -.00381000000000005
 -.036195 -1050710766793948e-31 826636589424463e-31 -1 16 210 1742 0 ?212 213 19
8 208 0 0 1 30 211 1749 0 213 208 214 0 +.01720772549455375 -.00381 -.023495 105
0710766793948e-31 -826636589424463e-31 1 16 213 1747 0 ?51 215 210 211 0 0 1 30
 214 1760 0 215 211 216 0 -.06858 -.000508000000000056 -.028575 -105071076679394
8e-31 826636589424463e-31 -1 16 215 1758 0 ?37 217 213 214 0 0 1 30 216 1771 0 2
17 214 218 0 +.0794995567884187 -.00444500000000006 -.036195 -1050710766793948e-
31 826636589424463e-31 -1 16 217 1769 0 ?36 219 215 216 0 0 1 31 218 1830 0 219
 216 220 0 +.01146787410273108 762e-6 -.028575 -1050710766793946e-31 82663658942
4462e-31 -1 772469519462177e-30 1 826636589424462e-31 .003302 16 219 1774 0 ?221
 222 217 218 0 0 1 31 220 1831 0 222 218 223 0 +.01146787410273108 762e-6 -.0361
95 1050710766793946e-31 -826636589424462e-31 1 -772469519462177e-30 -1 -82663658
9424462e-31 .003302 16 222 1779 0 ?63 224 219 220 0 0 1 31 223 1832 0 224 220 22
5 0 +.01720772549455375 -.000508000000000007 -.036195 1050710766793946e-31 -8266
36589424462e-31 1 -772469519462177e-30 -1 -826636589424462e-31 .003302 16 224 17
85 0 ?45 226 222 223 0 0 1 31 225 1833 0 226 223 227 0 +.01720772549455375 -.000
508000000000008 -.028575 -1050710766793946e-31 826636589424462e-31 -1 7724695194
62177e-30 1 826636589424462e-31 .003302 16 226 1791 0 ?116 228 224 225 0 0 1 31
 227 1834 0 228 225 229 0 +.065278 -.000508000000000049 -.036195 105071076679394
6e-31 -826636589424462e-31 1 -772469519462177e-30 -1 -826636589424462e-31 .00330
2 16 228 1796 0 ?42 230 226 227 0 0 1 31 229 1835 0 230 227 19 0 +.065278 -.0005
0800000000005 -.028575 -1050710766793946e-31 826636589424462e-31 -1 772469519462
177e-30 1 826636589424462e-31 .003302 16 230 1802 0 ?54 23 228 229 0 0 1 31 19 1
836 0 23 229 7 0 +.0794995567884187 -.007747 -.036195 1050710766793946e-31 -8266
36589424462e-31 1 -772469519462177e-30 -1 -826636589424462e-31 .003302 16 23 180
7 0 ?35 10 230 19 0 0 1 17 54 0 25 197 231 52 232 230 0 233 +15 25 142 0 231 234
 0 17 197 0 25 116 54 49 233 195 0 235 +17 231 0 25 54 158 31 72 236 0 232 +17 2
32 0 237 238 239 31 54 230 0 0 -17 233 0 240 212 51 52 197 195 0 239 -15 240 102
0 0 241 15 0 17 212 0 240 241 233 46 239 210 0 242 +17 51 0 240 233 241 49 243 2
13 0 197 +17 239 0 237 232 48 52 212 210 0 0 -15 237 1910 0 232 244 0 17 48 0 23
7 239 238 46 42 228 0 212 -17 238 0 237 48 232 38 37 215 0 0 -17 42 0 128 245 24
2 38 48 228 0 246 +17 245 0 128 123 42 96 246 247 0 248 -17 242 0 128 42 45 46 2
41 249 0 0 -17 246 0 250 37 98 38 245 247 0 238 +15 250 635 0 246 251 0 17 37 0
 250 72 246 31 238 215 0 231 +17 98 0 250 246 72 96 190 188 0 245 -16 247 599 0
 ?246 249 252 253 0 0 1 16 249 1737 0 ?241 236 247 254 0 0 1 16 252 877 0 ?255 2
47 256 257 0 0 1 30 253 675 0 247 257 254 0 +.06858 -530945513791285e-31 -.03619
5 -1683085517350265e-30 -1 -826636589424461e-31 30 257 934 0 252 258 253 0 +.008
255 -.00762 -.0254 -709229767585915e-31 826636589424462e-31 -1 30 254 674 0 249
 253 259 0 +.06858 -.003810000000000055 -.036195 -1 887494698142777e-30 10507107
66793948e-31 30 259 668 0 236 254 260 0 +.06858 -.00762000000000012 -.028575 -16
83085517350265e-30 -1 -826636589424461e-31 16 236 578 0 ?231 261 249 259 0 0 1 3
0 260 472 0 261 259 262 0 +.09398 -.004445000000000075 -.023495 -1 7724695194621
77e-30 -4127792298119075e-32 16 261 332 0 ?90 263 236 260 0 0 1 30 262 469 0 263
 260 163 0 +.09398 -.004445000000000075 -.023495 1050710766793946e-31 -826636589
424462e-31 1 16 263 1379 0 ?95 264 261 262 0 0 1 30 163 452 0 264 262 161 0 +.08
636 -.004445000000000065 -.028575 656694229246217e-31 826636589424461e-31 -1 16
 264 364 0 ?87 162 263 163 0 0 1 17 87 0 265 29 90 85 266 264 0 26 +16 162 1764
 0 ?66 147 264 161 0 0 1 17 66 0 265 95 36 64 136 162 0 267 +15 265 1382 0 29 26
8 269 17 95 0 265 90 66 93 270 263 0 271 +17 36 0 265 66 29 24 33 217 0 136 +17
 136 0 128 35 267 24 66 162 0 0 -17 267 0 128 136 123 64 272 148 0 270 -17 123 0
 128 267 245 121 248 169 0 272 +17 272 0 273 84 270 121 267 148 0 274 +16 148 14
70 0 ?272 207 134 275 0 0 1 17 270 0 273 272 276 64 95 263 0 0 -15 273 281 0 270
 277 0 17 276 0 273 270 84 93 183 181 0 0 -17 84 0 273 276 272 82 274 171 0 183
 +17 183 0 278 175 271 82 276 181 0 279 +15 278 273 0 271 280 0 17 175 0 278 281
 183 79 279 173 0 282 +17 271 0 278 183 281 93 90 261 0 276 -17 279 0 283 274 28
2 82 175 173 0 0 -15 283 76 0 274 284 0 17 274 0 283 248 279 121 84 171 0 0 -17
 282 0 283 279 285 79 176 159 0 0 -17 285 0 283 282 190 76 158 156 0 0 -17 176 0
 286 287 81 76 282 159 0 285 +15 286 266 0 266 288 0 17 287 0 286 266 176 85 78
 167 0 0 -17 81 0 286 176 266 79 281 179 0 175 +17 266 0 286 81 287 88 87 264 0
 281 -17 281 0 278 271 175 88 81 179 0 0 -17 78 0 25 158 26 76 287 167 0 176 +17
 158 0 25 231 78 70 285 156 0 0 +17 26 0 25 78 22 85 29 186 0 287 -17 29 0 265 3
6 87 11 26 186 0 33 +17 33 0 32 28 30 11 36 217 0 0 -15 32 1931 0 28 17 0 17 28
 0 32 34 33 73 22 10 0 0 -17 34 0 32 30 28 91 75 184 0 0 +17 75 0 137 166 129 73
 34 184 0 27 -17 166 0 137 104 75 67 27 139 0 255 +17 27 0 25 22 69 73 166 139 0
 28 -17 69 0 25 27 221 67 57 289 0 166 +17 221 0 25 69 290 55 60 219 0 194 +17 5
7 0 291 101 255 55 69 289 0 221 -16 289 884 0 ?69 292 293 258 0 0 1 16 292 862 0
 ?294 295 289 296 0 0 1 16 293 1050 0 ?297 289 298 299 0 0 1 30 258 936 0 289 30
0 257 0 +.008255 262457117142277e-33 -.028575 -772469519462177e-30 -1 -826636589
424461e-31 30 300 940 0 256 301 258 0 +.008255 123259516440783e-46 -.0254 -77246
9519462177e-30 -1 -826636589424461e-31 16 256 874 0 ?302 252 155 300 0 0 1 30 30
1 941 0 155 303 300 0 +.008255 -.00762 -.0254 -1 877540596141572e-30 70922976758
5916e-31 16 155 870 0 ?151 256 295 301 0 0 1 30 303 942 0 295 296 301 0 +0 0 -.0
254 772469519462177e-30 1 826636589424461e-31 16 295 866 0 ?145 155 292 303 0 0
 1 30 296 943 0 292 299 303 0 +.008255 123259516440783e-46 -.0254 1 -28228068853
85855e-48 -709229767585915e-31 30 299 1099 0 293 304 296 0 +.014605 -.00254 -.03
6195 -1050710766793946e-31 826636589424462e-31 -1 30 304 1100 0 298 305 299 0 +.
008255 -.00254 -.028575 1 -840765719303784e-30 -1050710766793948e-31 16 298 1713
 0 ?306 293 307 304 0 0 1 30 305 1102 0 307 308 304 0 +.008255 -.00254 -.036195
 -1 840765719303784e-30 1050710766793948e-31 16 307 1041 0 ?309 298 310 305 0 0
 1 31 308 1176 0 310 311 305 0 +.004445 372912265918927e-32 -.029845 -7724695194
62177e-30 -1 -826636589424462e-31 -1050710766793948e-31 826636589424463e-31 -1 .
0017 16 310 1150 0 ?312 307 313 308 0 0 1 31 311 1177 0 313 314 308 0 +.004445 -
.00617 -.029845 -772469519462177e-30 -1 -826636589424462e-31 -1050710766793948e-
31 826636589424463e-31 -1 .0017 16 313 1151 0 ?315 310 316 311 0 0 1 31 314 1178
 0 316 317 311 0 +.004445 -.00762 -.029845 -772469519462177e-30 -1 -826636589424
462e-31 -1050710766793948e-31 826636589424463e-31 -1 .00315 16 316 1149 0 ?318 3
13 319 314 0 0 1 31 317 1232 0 319 320 314 0 +.09017 -627532840138481e-31 -.0266
7 -772469519462177e-30 -1 -826636589424462e-31 -1050710766793948e-31 82663658942
4463e-31 -1 .0017 16 319 1206 0 ?321 316 322 317 0 0 1 31 320 1233 0 322 323 317
 0 +.09017 -.002995000000000065 -.02667 -772469519462177e-30 -1 -826636589424462
e-31 -1050710766793948e-31 826636589424463e-31 -1 .0017 16 322 1207 0 ?324 319 2
02 320 0 0 1 31 323 1234 0 202 325 320 0 +.09017 -.00444500000000007 -.02667 -77
2469519462177e-30 -1 -826636589424462e-31 -1050710766793948e-31 826636589424463e
-31 -1 .00315 16 202 1205 0 ?326 322 199 323 0 0 1 31 325 1306 0 203 327 323 0 +
.0120523 -.00508 -.036195 -1050710766793948e-31 826636589424463e-31 -1 772469519
462177e-30 1 826636589424462e-31 .001130299999999986 16 203 1278 0 ?328 199 204
 325 0 0 1 31 327 1357 0 207 150 325 0 +.0730123 -.00508000000000006 -.036195 -1
050710766793948e-31 826636589424463e-31 -1 772469519462177e-30 1 826636589424462
e-31 .001130299999999986 16 207 1329 0 ?329 204 148 327 0 0 1 30 150 1634 0 134
 275 327 0 +0 -.00762 -.036195 772469519462177e-30 1 826636589424462e-31 30 275
 1635 0 148 330 150 0 +.09398 -.00762 -.036195 772469519462177e-30 1 82663658942
4462e-31 30 330 1638 0 149 0 275 0 +.09398 -727152771734678e-31 -.036195 1 -7724
69519462177e-30 -1050710766793948e-31 16 149 1456 0 ?133 134 0 330 0 0 1 17 133
 0 128 63 126 117 135 149 0 331 +17 63 0 128 332 133 61 331 222 0 309 +17 135 0
 333 110 119 124 133 149 0 143 -17 331 0 334 335 336 117 63 222 0 0 -15 334 1868
 0 331 337 0 17 335 0 334 60 331 55 119 191 0 0 -17 336 0 334 331 60 61 209 198
 0 0 -17 60 0 334 336 335 58 221 219 0 209 -17 209 0 338 306 309 58 336 198 0 29
0 +15 338 1079 0 309 339 0 17 306 0 338 297 209 114 290 298 0 340 +17 309 0 338
 209 297 61 332 307 0 336 +17 290 0 25 221 116 58 306 298 0 0 -17 116 0 25 290 1
97 114 235 226 0 306 +17 235 0 341 243 340 49 116 226 0 0 -15 341 1889 0 235 342
 0 17 243 0 341 113 235 43 51 213 0 0 -17 340 0 341 235 113 114 297 293 0 0 -17
 113 0 341 340 243 111 45 224 0 297 -17 297 0 338 309 306 111 340 293 0 332 +17
 332 0 128 45 63 111 309 307 0 0 -17 45 0 128 242 332 43 113 224 0 241 +17 241 0
 240 51 212 43 242 249 0 243 +14 255 342 1888 343 ?244 337 341 5 344 -0 0 244 33
7 21 81 1 343 2128 345 342 0 0 346 347 348 14 244 1909 347 ?17 342 237 5 18 -0 0
 17 342 21 14 337 1867 346 ?342 349 334 5 350 -0 0 342 349 21 51 344 1900 0 342
 350 18 0 +.01720772549455375 -.000508000000000007 -.036195 1050710766793948e-31
 -826636589424463e-31 1 .003302 -772469519462177e-30 -1 -826636589424462e-31 13
 21 53 0 0 0 0 0 0 9 15 14 15 1022 351 ?352 0 240 5 353 -0 0 352 0 21 81 1 351 2
106 345 15 0 0 0 354 355 14 352 1009 354 ?132 15 291 5 356 -0 0 132 15 21 50 255
 353 662 0 15 356 357 0 +.06858 -.003810000000000055 -.023495 -887494698142777e-
30 -1 -826636589424462e-31 -1 887494698142777e-30 1050710766793948e-31 50 356 66
3 0 352 358 353 0 +.008255 -157474270285344e-33 -.023495 -1 441493351101453e-29
 105071076679395e-30 441493351101453e-29 1 826636589424458e-31 50 357 661 0 251
 353 359 0 +.06858 -541443798476976e-31 -.023495 1 -1683085517350265e-30 -105071
076679395e-30 -1683085517350265e-30 -1 -826636589424461e-31 14 251 632 360 ?361
 268 250 5 357 -0 0 361 268 21 50 359 449 0 268 357 362 0 +.0762 -.0044450000000
0006 -.023495 -772469519462177e-30 -1 -826636589424462e-31 -1050710766793948e-31
 826636589424463e-31 -1 14 268 392 363 ?251 284 265 5 359 +0 0 251 284 21 50 362
 2 0 152 359 364 0 +0 -.00762 -.036195 -772469519462177e-30 -1 -826636589424462e
-31 -1050710766793948e-31 826636589424463e-31 -1 14 152 1 365 ?284 234 137 5 362
 +0 0 284 234 21 50 364 117 0 284 362 366 0 +0 -118591734412436e-33 -.036195 -77
2469519462177e-30 -1 -826636589424462e-31 -1050710766793948e-31 826636589424463e
-31 -1 14 284 75 367 ?268 152 368 5 364 -369 369 268 152 21 50 366 166 0 234 364
 370 0 +0 -.00762 -.028575 -1050710766793946e-31 826636589424462e-31 -1 77246951
9462177e-30 1 826636589424462e-31 14 234 143 371 ?152 144 372 5 366 -0 0 152 144
 21 50 370 167 0 288 366 373 0 +.08636 -.00762 -.028575 1 -772469519462177e-30 6
56694229246216e-31 -656694229246217e-31 -826636589424461e-31 1 14 288 267 374 ?1
44 280 286 5 370 -0 0 144 280 21 50 373 168 0 280 370 375 0 +.08636 -.00762 -.02
3495 -1050710766793946e-31 826636589424462e-31 -1 772469519462177e-30 1 82663658
9424462e-31 14 280 275 376 ?288 277 278 5 373 -0 0 288 277 21 50 375 169 0 277 3
73 377 0 +.09398 -.00762 -.023495 -1 772469519462177e-30 1050710766793948e-31 77
2469519462177e-30 1 826636589424462e-31 14 277 283 378 ?280 369 273 5 375 -0 0 2
80 369 21 50 377 172 0 132 375 379 0 +0 -.00762 -.036195 1050710766793946e-31 -8
26636589424462e-31 1 -772469519462177e-30 -1 -826636589424462e-31 14 132 729 380
 ?369 352 381 5 377 -0 0 369 352 21 50 379 173 0 144 377 350 0 +0 -.00762 -.0285
75 1 -772469519462177e-30 -1050710766793948e-31 -772469519462177e-30 -1 -8266365
89424462e-31 14 144 157 382 ?234 288 142 5 379 -0 0 234 288 21 51 350 1879 0 337
 379 344 0 +.01146787410273108 762e-6 -.023495 1050710766793948e-31 -82663658942
4463e-31 1 .003302 -772469519462177e-30 -1 -826636589424462e-31 81 1 382 2113 34
5 144 0 0 374 371 383 80 255 1 345 0 384 8001 0 0 0 0 3 5 0 0 0 FFFFTFTFFFFFFF2
 81 1 374 2112 345 288 0 0 376 382 385 81 1 371 2114 345 234 0 0 382 365 386 83
 255 3 383 .866666666666667 .909803921568627 1 81 1 365 2115 345 152 0 0 371 367
 387 83 3 386 .866666666666667 .909803921568627 1 81 1 367 2116 345 284 0 0 365
 363 388 83 3 387 .866666666666667 .909803921568627 1 81 1 363 2117 345 268 0 0
 367 360 389 83 3 388 .866666666666667 .909803921568627 1 81 1 360 2118 345 251
 0 0 363 390 391 83 3 389 .866666666666667 .909803921568627 1 81 1 390 2119 345
 361 0 0 360 392 393 83 3 391 .866666666666667 .909803921568627 1 14 361 918 390
 ?339 251 394 5 358 -0 0 339 251 21 81 1 392 2120 345 339 0 0 390 395 396 83 3 3
93 .866666666666667 .909803921568627 1 14 339 1077 392 ?397 361 338 5 398 -0 0 3
97 361 21 81 1 395 2121 345 397 0 0 392 399 400 83 3 396 .866666666666667 .90980
3921568627 1 14 397 1160 395 ?401 339 402 5 403 -0 0 401 339 21 81 1 399 2122 34
5 401 0 0 395 404 405 83 3 400 .866666666666667 .909803921568627 1 14 401 1165 3
99 ?406 397 407 5 408 -0 0 406 397 21 81 1 404 2123 345 406 0 0 399 409 410 83 3
 405 .866666666666667 .909803921568627 1 14 406 1216 404 ?411 401 412 5 413 -0 0
 411 401 21 81 1 409 2124 345 411 0 0 404 414 415 83 3 410 .866666666666667 .909
803921568627 1 14 411 1221 409 ?416 406 417 5 418 -0 0 416 406 21 81 1 414 2125
 345 416 419 0 409 420 421 83 3 415 .866666666666667 .909803921568627 1 14 416 1
281 414 ?349 411 422 5 423 -0 0 349 411 21 81 3 419 1976 424 416 0 414 425 0 426
 0 0 81 1 420 2126 345 349 425 0 414 346 427 83 3 421 .866666666666667 .90980392
1568627 1 14 349 1332 420 ?337 416 428 5 429 -0 0 337 416 21 81 3 425 1975 424 3
49 0 420 0 419 430 0 0 81 1 346 2127 345 337 0 0 420 343 431 83 3 427 .866666666
666667 .909803921568627 1 83 3 431 .866666666666667 .909803921568627 1 80 3 424
 432 433 9000 0 0 0 0 3 5 0 0 0 FFFFTFFFFFFFFF5 5 5 86 255 3 430 1 0 0 .0019304
 -.0209677 .00508 1e100 1e100 1e100 79 255 12 433 TexSplitFace15 428 1335 0 329
 349 434 51 429 1355 0 349 0 423 0 +.0730123 -.00508000000000006 -.036195 -10507
10766793948e-31 826636589424463e-31 -1 .001130299999999986 772469519462177e-30 1
 826636589424462e-31 51 423 1304 0 416 429 418 0 +.0120523 -.00508 -.036195 -105
0710766793948e-31 826636589424463e-31 -1 .001130299999999986 772469519462177e-30
 1 826636589424462e-31 52 255 418 1231 0 411 423 413 0 +.09017 -.004445000000000
07 -.02667 -772469519462177e-30 -1 -826636589424462e-31 .00315 .707106781186548
 .707106781186547 -1050710766793948e-31 826636589424463e-31 -1 51 413 1230 0 406
 418 408 0 +.09017 -.00444500000000007 -.02667 -772469519462177e-30 -1 -82663658
9424462e-31 .0017 -1050710766793948e-31 826636589424463e-31 -1 52 408 1175 0 401
 413 403 0 +.004445 -.00762 -.029845 -772469519462177e-30 -1 -826636589424462e-3
1 .00315 .707106781186548 .707106781186547 -1050710766793948e-31 826636589424463
e-31 -1 51 403 1174 0 397 408 398 0 +.004445 -.00762 -.029845 -772469519462177e-
30 -1 -826636589424462e-31 .0017 -1050710766793948e-31 826636589424463e-31 -1 50
 398 1090 0 339 403 358 0 +.014605 -.00254 -.036195 -840765719303784e-30 -1 -826
636589424462e-31 -1 840765719303784e-30 1050710766793948e-31 50 358 931 0 361 39
8 356 0 +0 0 -.0254 -709229767585915e-31 826636589424462e-31 -1 -772469519462177
e-30 -1 -826636589424461e-31 17 329 0 428 329 329 0 435 207 0 0 +15 434 1336 0 4
36 349 0 17 436 0 434 436 436 0 206 204 0 0 -17 206 0 372 206 206 0 436 204 0 0
 +15 372 1310 0 206 234 437 15 437 1259 0 201 234 25 17 201 0 437 201 201 0 438
 199 0 0 +17 438 0 439 438 438 0 201 199 0 0 -15 439 1285 0 438 416 0 17 435 0 3
81 435 435 0 329 207 0 0 -15 381 1319 0 435 132 440 15 440 1268 0 441 132 128 17
 441 0 440 441 441 0 328 203 0 0 -17 328 0 422 328 328 0 441 203 0 0 +15 422 128
4 0 328 416 439 86 3 426 1 0 0 .0019304 -.0819277 .00508 1e100 1e100 1e100 15 41
7 1224 0 442 411 443 17 442 0 417 442 442 0 324 322 0 0 -15 443 1225 0 326 411 0
 17 326 0 443 326 326 0 444 202 0 0 +17 444 0 269 444 444 0 326 202 0 0 -15 269
 1192 0 444 268 0 17 324 0 445 324 324 0 442 322 0 0 +15 445 1220 0 324 406 0 15
 412 1219 0 446 406 445 17 446 0 412 446 446 0 321 319 0 0 -17 321 0 368 321 321
 0 446 319 0 0 +15 368 1198 0 321 284 283 15 407 1168 0 447 401 448 17 447 0 407
 447 447 0 315 313 0 0 -15 448 1169 0 318 401 0 17 318 0 448 318 318 0 449 316 0
 0 +17 449 0 153 449 449 0 318 316 0 0 -15 153 1132 0 449 152 0 17 315 0 450 315
 315 0 447 313 0 0 +15 450 1164 0 315 397 0 15 402 1163 0 451 397 450 17 451 0 4
02 451 451 0 312 310 0 0 -17 312 0 452 312 312 0 451 310 0 0 +15 452 1140 0 312
 369 333 14 369 540 453 ?277 132 452 5 364 -284 284 277 132 21 15 333 538 0 194
 369 0 17 194 0 333 119 294 55 101 192 0 335 +17 119 0 333 135 194 117 335 191 0
 133 +17 294 0 333 194 110 99 454 292 0 455 +17 101 0 291 302 57 99 194 192 0 29
4 -15 291 1007 0 57 352 0 17 302 0 291 255 101 102 455 256 0 0 +17 255 0 291 57
 302 67 104 252 0 0 +17 455 0 394 454 154 99 302 256 0 0 -15 394 920 0 454 361 0
 17 454 0 394 146 455 108 294 292 0 145 -17 154 0 394 455 146 102 151 155 0 302
 -17 146 0 394 154 454 105 145 295 0 151 -17 145 0 142 143 107 108 146 295 0 0 +
17 104 0 137 151 166 102 255 252 0 154 -17 110 0 333 294 135 108 143 147 0 454 -
16 191 1721 0 ?119 192 188 189 192 192 1 81 1 453 2109 345 369 0 0 380 378 456 8
1 1 380 2108 345 132 0 0 354 453 457 81 1 378 2110 345 277 0 0 453 376 458 83 3
 456 .866666666666667 .909803921568627 1 81 1 376 2111 345 280 0 0 378 374 459 8
3 3 458 .866666666666667 .909803921568627 1 83 3 459 .866666666666667 .909803921
568627 1 81 1 354 2107 345 352 0 0 351 380 460 83 3 457 .866666666666667 .909803
921568627 1 83 3 460 .866666666666667 .909803921568627 1 83 3 385 .8666666666666
67 .909803921568627 1 79 15 384 SDL/TYSA_COLOUR83 3 355 .866666666666667 .909803
921568627 1 51 18 1921 0 244 344 6 0 +.065278 -.000508000000000051 -.023495 1050
710766793948e-31 -826636589424463e-31 1 .003302 -772469519462177e-30 -1 -8266365
89424462e-31 81 1 347 2129 345 244 0 0 343 461 462 14 17 1930 461 ?0 244 32 5 6
 -0 0 0 244 21 81 1 461 2130 345 17 0 0 347 0 463 83 3 463 .866666666666667 .909
803921568627 1 83 3 462 .866666666666667 .909803921568627 1 83 3 348 .8666666666
66667 .909803921568627 1 17 190 0 283 285 248 70 98 188 0 158 +17 248 0 283 190
 274 96 123 169 0 0 -17 90 0 265 87 95 88 271 261 0 266 +17 72 0 250 98 37 70 23
1 236 0 190 -19 16 175 0 1 0 9 5 S74 4 CI16 index_map_offset0 0 1 dCCZ20 14 3 0
 0 419 2 461 0 0 0 0 0 0 0 0 0 0 0 0 0 0 0 0 0 80 2 12 464 465 8004 0 0 0 0 3 5
 0 0 0 FFTFFFFFFFFFFF2 3 83 1 13 27e2 79 16 465 SDL/TYSA_DENSITY1 0 
