**ABCDEFGHIJKLMNOPQRSTUVWXYZabcdefghijklmnopqrstuvwxyz**************************
**PARASOLID !"#$%&'()*+,-./:;<=>?@[\]^_`{|}~0123456789**************************
**PART1;
MC=x86;
MC_MODEL=x86 Family 6 Model 23 Stepping 6, GenuineIntel;
MC_ID=unknown;
OS=Windows_NT;
OS_RELEASE=unknown;
FRU=Parasolid Version 22.1, build 256, 12- 1-2010;
APPL=SolidWorks 2011-2011006;
SITE=;
USER=unknown;
FORMAT=text;
GUISE=transmit;
KEY=PSAS-Avionics-PC-104_Mounting_Cross_Bar_Narrow;
FILE=PSAS-Avionics-PC-104_Mounting_Cross_Bar_Narrow.x_t;
DATE=Sat Mar 31 12:50:57 2012;
**PART2;
SCH=SCH_2201256_20000;
USFLD_SIZE=0;
**PART3;
**END_OF_HEADER*****************************************************************
T51 : TRANSMIT FILE created by modeller version 220125623 SCH_2201256_20000_1300
6186 0 12 27 CCCCCCCCCCCCCCCCCCCCCCCA16 index_map_offset0 0 1 dA9 index_map82 0
 A17 node_id_index_map82 0 A20 schema_embedding_map82 0 Z1 1119 2 3 4 0 0 0 1e3
 1e-8 0 5 0 1 0 1 1 6 7 8 9 10 11 12 0 0 0 0 81 255 2 2 755 13 1 0 0 0 0 14 0 70
 11 CI9 list_type0 0 1 uI10 notransmit0 0 1 lCCCDCCDI12 finger_index0 0 1 dI12 f
inger_block1012 0 CZ3 0 4 T1 0 0 2 20 1 15 15 50 255 4 490 0 1 16 0 0 +.073025 -
.00343916 -.03175 0 -1 0 1 0 0 13 255 6 94 0 1 0 17 0 0 18 0 51 255 7 1030 0 19
 20 0 0 +.00861485406470263 .00240284 -.0254 0 0 -1 .003302 0 1 0 31 255 8 939 0
 11 21 0 0 +.00861485406470263 .00240284 -.03175 0 0 1 0 -1 0 .003302 29 255 9 8
85 0 12 22 0 .03027288289660845 -.00343916 -.03175 19 255 10 28 0 1 18 0 23 V16
 255 11 927 0 ?24 0 25 8 0 0 1 18 255 12 883 0 26 0 27 9 ?1 17 255 26 0 28 29 30
 12 31 32 0 33 +18 27 880 0 34 12 35 22 ?1 17 34 0 36 37 38 27 39 40 0 41 -18 35
 871 0 42 27 43 44 ?1 29 22 882 0 27 44 9 .03027288289660845 -.00343916 -.0254 2
9 44 873 0 35 45 22 .0491021171033916 -.00343916 -.03175 29 45 870 0 43 46 44 .0
491021171033916 -.00343916 -.0254 18 43 868 0 47 35 48 45 ?1 29 46 855 0 48 49 4
5 .0707601459352974 -89916e-8 -.0254 18 48 853 0 50 43 51 46 ?1 29 49 852 0 51 5
2 46 .00861485406470263 -89916e-8 -.0254 18 51 850 0 53 48 54 49 ?1 29 52 849 0
 54 55 49 .00861485406470263 -89916e-8 -.03175 18 54 847 0 24 51 56 52 ?1 29 55
 846 0 56 57 52 .0707601459352974 -89916e-8 -.03175 18 56 844 0 58 54 59 55 ?1 2
9 57 494 0 59 60 55 .0333375 -.0055118 -.03175 18 59 492 0 61 56 62 57 ?1 29 60
 304 0 62 63 57 .0460375 -.0055118 -.0254 18 62 302 0 64 59 65 60 ?1 29 63 138 0
 65 66 60 .00635 0 -.03175 18 65 136 0 67 62 68 63 ?1 29 66 70 0 68 69 63 .07937
5 0 -.03175 18 68 61 0 70 65 71 66 ?1 29 69 71 0 71 72 66 0 0 -.03175 18 71 62 0
 73 68 74 69 ?1 29 72 72 0 74 75 69 0 0 -.0254 18 74 63 0 76 71 77 72 ?1 29 75 7
3 0 77 78 72 .079375 0 -.0254 18 77 64 0 79 74 80 75 ?1 29 78 265 0 80 81 75 .07
3025 0 -.0254 18 80 218 0 82 77 83 78 ?1 29 81 266 0 83 84 78 .00635 0 -.0254 18
 83 220 0 85 80 86 81 ?1 29 84 268 0 86 87 81 .073025 0 -.03175 18 86 216 0 88 8
3 89 84 ?1 29 87 413 0 90 91 84 .079375 -.00343916 -.03175 18 90 367 0 92 89 93
 87 ?1 29 91 415 0 89 94 87 .079375 -.00343916 -.0254 18 89 370 0 95 86 90 91 ?1
 29 94 418 0 93 96 91 .0460375 -.0055118 -.03175 18 93 365 0 97 90 98 94 ?1 29 9
6 604 0 99 100 94 693889390390723e-32 -.00343916 -.03175 18 99 559 0 101 98 102
 96 ?1 29 100 605 0 98 103 96 1387778780781446e-32 -.00343916 -.0254 18 98 560 0
 104 93 99 100 ?1 29 103 608 0 102 0 100 .0333375 -.0055118 -.0254 18 102 554 0
 39 99 0 103 ?1 17 39 0 105 106 107 102 34 40 0 108 +15 255 105 528 0 107 109 0
 17 106 0 105 47 39 62 108 110 0 0 -17 107 0 105 39 111 27 104 112 0 0 -16 40 91
2 0 ?39 32 113 114 0 0 1 17 108 0 115 61 116 102 106 110 0 38 +15 115 499 0 61 1
7 117 17 61 0 115 118 108 59 38 119 0 30 +17 116 0 115 108 118 62 120 121 0 106
 -16 110 303 0 ?108 122 123 124 0 0 1 17 38 0 36 34 31 102 61 119 0 0 -15 36 998
 0 31 125 0 17 31 0 36 38 37 59 26 32 0 0 -16 119 540 0 ?61 126 127 128 0 0 1 16
 126 533 0 ?33 112 119 129 0 0 1 16 127 636 0 ?130 119 131 132 0 0 1 30 255 128
 597 0 119 133 129 0 +.0333375 -.0055118 -.0254 0 0 -1 30 133 600 0 134 135 128
 0 +1387778780781446e-32 -.00343916 -.0254 -1092739197465704e-30 0 -1 30 129 591
 0 126 128 136 0 +693889390390723e-32 -.00343916 -.03175 1 0 0 31 136 480 0 137
 129 138 0 +.0765175 -.00343916 -.028575 0 -1 0 1 0 0 .0017 16 137 459 0 ?139 14
0 134 136 0 0 1 31 138 479 0 140 136 141 0 +.0765175 0 -.028575 0 -1 0 1 0 0 .00
17 16 140 460 0 ?142 121 137 138 0 0 1 30 141 411 0 143 138 144 0 +.079375 -.003
43916 -.03175 -1 0 0 16 143 360 0 ?145 146 121 141 0 0 1 30 144 410 0 146 141 14
7 0 +.079375 -.00343916 -.0254 1092739197465704e-30 0 -1 16 146 359 0 ?148 149 1
43 144 0 0 1 30 147 407 0 121 144 150 0 +.0460375 -.0055118 -.0254 0 0 -1 16 121
 353 0 ?120 143 140 147 0 0 1 30 150 401 0 149 147 151 0 +.079375 -.00343916 -.0
254 1 0 1300879996982982e-31 16 149 869 0 ?95 152 146 150 0 0 1 30 151 263 0 153
 150 154 0 +.00635 -89916e-8 -.03175 -1 0 0 16 153 845 0 ?155 156 157 151 0 0 1
 30 154 261 0 156 151 158 0 +.00635 -89916e-8 -.0254 1 0 0 16 156 851 0 ?159 160
 153 154 0 0 1 30 158 260 0 152 154 161 0 +.073025 0 -.0254 0 0 -1 16 152 203 0
 ?162 157 149 158 0 0 1 30 161 258 0 157 158 124 0 +.00635 0 -.0254 0 0 1 16 157
 209 0 ?163 153 152 161 0 0 1 30 124 8 0 110 161 164 0 +0 -.0055118 -.0254 -1 0
 0 30 164 14 0 122 124 165 0 +0 -.0055118 -.03175 1 0 0 16 122 493 0 ?118 166 11
0 164 0 0 1 30 165 69 0 160 164 167 0 +.079375 0 -.03175 0 0 1 16 160 57 0 ?168
 169 156 165 0 0 1 30 167 68 0 170 165 171 0 +0 0 -.0254 -1 0 0 16 170 53 0 ?172
 173 169 167 169 169 1 30 171 67 0 173 167 174 0 +0 0 -.03175 0 0 -1 16 173 49 0
 ?175 176 170 171 0 0 1 30 174 66 0 123 171 177 0 +0 0 -.03175 1 0 0 16 123 45 0
 ?178 110 176 174 176 176 1 30 177 86 0 166 174 179 0 +.079375 -.0055118 -.03175
 0 1 0 16 166 314 0 ?70 180 122 177 0 0 1 30 179 87 0 180 177 181 0 +0 -.0055118
 -.03175 0 1 0 16 180 504 0 ?73 182 166 179 0 0 1 30 181 88 0 182 179 183 0 +0 -
.0055118 -.0254 0 1 0 16 182 516 0 ?76 184 180 181 0 0 1 30 183 89 0 184 181 185
 0 +.079375 -.0055118 -.0254 0 1 0 16 184 326 0 ?79 186 182 183 0 0 1 30 185 858
 0 186 183 187 0 -.00861485406470263 -89916e-8 -.03175 0 0 -1 16 186 856 0 ?188
 189 184 185 0 0 1 30 187 864 0 189 185 190 0 -.0707601459352974 -89916e-8 -.031
75 0 0 1 16 189 862 0 ?191 192 186 187 0 0 1 30 190 876 0 192 187 193 0 -.049102
1171033916 -.00343916 -.03175 0 0 1 16 192 874 0 ?42 194 189 190 0 0 1 30 193 88
8 0 194 190 195 0 +.03027288289660845 -.00343916 -.0254 0 0 1 16 194 886 0 ?41 1
96 192 193 0 0 1 31 195 932 0 196 193 197 0 +.0707601459352974 .00240284 -.03175
 0 0 1 0 -1 0 .003302 16 196 892 0 ?88 198 194 195 0 0 1 31 197 933 0 198 195 19
9 0 +.0707601459352974 .00240284 -.0254 0 0 -1 0 1 0 .003302 16 198 897 0 ?50 20
0 196 197 0 0 1 31 199 934 0 200 197 201 0 +.0491021171033916 -.00674116 -.0254
 0 0 -1 0 1 0 .003302 16 200 902 0 ?47 113 198 199 0 0 1 31 201 935 0 113 199 11
4 0 +.0491021171033916 -.00674116 -.03175 0 0 1 0 -1 0 .003302 16 113 907 0 ?97
 40 200 201 0 0 1 31 114 936 0 40 201 202 0 +.03027288289660845 -.00674116 -.025
4 0 0 -1 0 1 0 .003302 31 202 937 0 32 114 21 0 +.03027288289660845 -.00674116 -
.03175 0 0 1 0 -1 0 .003302 16 32 917 0 ?26 25 40 202 0 0 1 31 21 938 0 25 202 8
 0 +.00861485406470263 .00240284 -.0254 0 0 -1 0 1 0 .003302 16 25 922 0 ?85 11
 32 21 0 0 1 17 85 0 105 203 204 83 53 25 0 205 +17 203 0 105 111 85 74 205 169
 0 206 +17 204 0 105 85 50 51 159 156 0 0 -17 53 0 207 208 163 51 85 25 0 188 -1
7 205 0 209 67 206 83 203 169 0 163 -15 209 149 0 67 210 0 17 67 0 209 211 205 6
5 163 157 0 178 -17 206 0 209 205 211 74 175 173 0 0 -16 169 146 0 ?203 170 160
 167 170 170 1 17 163 0 207 53 212 83 67 157 0 0 +15 207 1019 0 212 19 0 17 212
 0 207 163 208 65 24 11 0 0 -17 208 0 207 212 53 54 188 186 0 0 -17 24 0 28 213
 178 54 212 11 0 155 +15 28 511 0 30 214 0 17 213 0 28 88 24 56 155 153 0 0 -17
 178 0 28 24 73 65 211 123 0 212 +17 155 0 215 188 191 54 213 153 0 208 +15 215
 241 0 159 216 0 17 188 0 215 159 155 51 208 186 0 204 +17 191 0 215 155 159 56
 217 189 0 213 +17 159 0 215 191 188 48 204 156 0 217 +17 217 0 218 219 58 48 19
1 189 0 0 -15 218 956 0 219 220 0 17 219 0 218 162 217 80 50 198 0 0 -17 58 0 21
8 217 162 56 88 196 0 191 -17 162 0 218 58 219 86 82 152 0 0 +17 88 0 28 221 213
 86 58 196 0 222 +17 221 0 28 223 88 68 222 176 0 224 +17 222 0 225 82 224 86 22
1 176 0 162 -15 225 154 0 82 226 0 17 82 0 225 227 222 80 162 152 0 172 -17 224
 0 225 222 227 68 168 160 0 0 -16 176 140 0 ?221 123 173 174 123 123 1 17 227 0
 225 224 82 77 172 170 0 168 -17 168 0 228 229 70 77 224 160 0 0 +15 228 338 0 1
48 230 0 17 229 0 228 148 168 89 79 184 0 0 -17 70 0 228 168 148 68 223 166 0 22
1 +17 148 0 228 70 229 90 231 146 0 223 +17 223 0 28 145 221 90 70 166 0 0 -17 1
45 0 28 97 223 35 92 143 0 232 +17 97 0 28 30 145 93 232 113 0 118 +17 92 0 233
 231 42 90 145 143 0 148 -17 232 0 234 235 120 35 97 113 0 0 -15 234 977 0 232 2
36 0 17 235 0 234 64 232 43 42 192 0 0 -17 120 0 234 232 64 93 116 121 0 0 +17 6
4 0 234 120 235 62 47 200 0 116 -17 47 0 105 95 106 43 64 200 0 237 +17 95 0 105
 79 47 89 237 149 0 231 +17 237 0 233 42 231 43 95 149 0 235 -15 233 392 0 237 2
38 0 17 42 0 233 92 237 35 235 192 0 145 +17 231 0 233 237 92 89 148 146 0 229 -
14 255 238 390 239 ?240 216 241 6 242 +0 0 240 216 23 81 1 239 1075 243 238 0 0
 244 245 246 14 240 469 245 ?247 238 248 6 249 -0 0 247 238 23 14 216 239 244 ?2
38 210 250 6 251 -0 0 238 210 23 15 241 446 0 252 238 233 50 242 400 0 238 249 2
51 0 +.073025 -.00343916 -.03175 0 -1 0 1 0 0 13 23 29 0 0 0 0 0 0 10 17 14 17 6
76 253 ?109 0 115 6 254 -0 0 109 0 23 81 1 253 1067 243 17 0 0 0 255 256 14 109
 530 255 ?257 17 105 6 258 -0 0 257 17 23 50 254 2 0 17 251 259 0 +.079375 -.005
5118 -.0254 0 1 0 -1 0 0 50 251 252 0 216 242 254 0 +.073025 -89916e-8 -.03175 0
 -1 0 1 0 0 50 259 65 0 210 254 260 0 +.079375 0 -.0254 0 1 0 -1 0 0 14 210 43 2
61 ?216 226 262 6 259 +226 226 216 226 23 50 260 90 0 214 259 263 0 +0 -.0055118
 -.03175 0 0 1 0 -1 0 14 214 513 264 ?230 257 28 6 260 -0 0 230 257 23 50 263 91
 0 257 260 258 0 +0 -.0055118 -.03175 1 0 0 0 1 0 14 257 521 265 ?214 109 266 6
 263 -0 0 214 109 23 50 258 92 0 109 263 267 0 +0 -.0055118 -.0254 0 0 -1 0 1 0
 50 267 93 0 230 258 268 0 +.079375 -.0055118 -.03175 -1 0 0 0 -1 0 14 230 340 2
69 ?226 214 228 6 267 -0 0 226 214 23 51 268 967 0 220 267 270 0 +.0707601459352
974 .00240284 -.0254 0 0 1 .003302 0 -1 0 14 220 955 271 ?236 272 218 6 268 -0 0
 236 272 23 51 270 988 0 236 268 20 0 +.0491021171033916 -.00674116 -.0254 0 0 -
1 .003302 0 1 0 14 236 976 273 ?125 220 234 6 270 -0 0 125 220 23 51 20 1009 0 1
25 270 7 0 +.03027288289660845 -.00674116 -.0254 0 0 -1 .003302 0 1 0 14 125 997
 274 ?19 236 36 6 20 -0 0 19 236 23 81 1 274 1082 243 125 0 0 273 275 276 14 19
 1018 275 ?0 125 207 6 7 -0 0 0 125 23 81 1 275 1083 243 19 0 0 274 0 277 80 255
 1 243 0 278 8001 0 0 0 0 3 5 0 0 0 FFFFTFTFFFFFFF2 83 255 3 277 .79215686274509
8 .819607843137255 .933333333333333 79 255 15 278 SDL/TYSA_COLOUR81 1 273 1081 2
43 236 0 0 271 274 279 83 3 276 .792156862745098 .819607843137255 .9333333333333
33 81 1 271 1080 243 220 0 0 280 273 281 83 3 279 .792156862745098 .819607843137
255 .933333333333333 81 1 280 1079 243 272 0 0 282 271 283 83 3 281 .79215686274
5098 .819607843137255 .933333333333333 14 272 689 280 ?220 284 285 6 286 -0 0 22
0 284 23 81 1 282 1078 243 284 0 0 287 280 288 83 3 283 .792156862745098 .819607
843137255 .933333333333333 14 284 645 282 ?272 247 289 6 290 -0 0 272 247 23 81
 1 287 1077 243 247 0 0 245 282 291 83 3 288 .792156862745098 .819607843137255 .
933333333333333 14 247 580 287 ?284 240 292 6 293 +0 0 284 240 23 81 1 245 1076
 243 240 0 0 239 287 294 83 3 291 .792156862745098 .819607843137255 .93333333333
3333 83 3 294 .792156862745098 .819607843137255 .933333333333333 15 292 622 0 29
5 247 296 50 293 590 0 247 290 249 0 +.073025 -.00343916 -.03175 0 -1 0 1 0 0 51
 290 654 0 284 286 293 0 +.0028575 -.00343916 -.028575 0 -1 0 .0017 1 0 0 51 249
 478 0 240 293 242 0 +.0765175 -.00343916 -.028575 0 -1 0 .0017 1 0 0 51 286 711
 0 272 0 290 0 +.0396875 -.0055118 -.028575 0 -1 0 .0017272 1 0 0 17 295 0 292 2
95 295 0 297 131 0 0 -15 296 582 0 33 247 0 17 33 0 296 41 101 12 29 126 0 37 +1
7 41 0 296 104 33 27 37 194 0 107 +17 101 0 296 33 104 99 298 134 0 29 +17 29 0
 28 73 26 99 33 126 0 299 -17 37 0 36 31 34 12 41 194 0 0 -17 73 0 28 178 29 71
 299 180 0 175 +17 299 0 266 298 175 99 73 180 0 0 -15 266 519 0 298 257 0 17 29
8 0 266 76 299 98 101 134 0 111 -17 175 0 266 299 76 71 206 173 0 211 +17 76 0 2
66 175 298 74 111 182 0 203 +17 211 0 209 206 67 71 178 123 0 0 -17 111 0 105 10
7 203 98 76 182 0 0 -16 134 548 0 ?101 137 112 133 0 0 1 16 112 881 0 ?104 134 1
26 135 0 0 1 17 104 0 296 101 41 98 107 112 0 298 +30 135 601 0 112 132 133 0 +1
387778780781446e-32 -.00343916 -.0254 -1 0 1300879996982982e-31 31 132 655 0 127
 300 135 0 +.0028575 0 -.028575 0 -1 0 1 0 0 .0017 31 300 656 0 131 301 132 0 +.
0028575 -.00343916 -.028575 0 -1 0 1 0 0 .0017 16 131 635 0 ?297 127 302 300 0 0
 1 31 301 712 0 302 303 300 0 +.0396875 -89916e-8 -.028575 0 -1 0 1 0 0 .0017272
 16 302 686 0 ?304 131 305 301 0 0 1 31 303 714 0 305 0 301 0 +.0396875 -.005511
8 -.028575 0 -1 0 1 0 0 .0017272 16 305 687 0 ?306 302 0 303 0 0 1 17 306 0 285
 306 306 0 307 305 0 0 +15 285 692 0 306 272 308 17 307 0 117 307 307 0 306 305
 0 0 -15 117 675 0 307 17 0 15 308 693 0 309 272 0 17 309 0 308 309 309 0 304 30
2 0 0 -17 304 0 250 304 304 0 309 302 0 0 +15 250 680 0 304 216 215 17 297 0 310
 297 297 0 295 131 0 0 +15 310 649 0 297 284 0 15 289 648 0 311 284 310 17 311 0
 289 311 311 0 130 127 0 0 -17 130 0 262 130 130 0 311 127 0 0 +15 262 629 0 130
 210 209 81 1 269 1071 243 230 0 0 264 312 313 14 226 151 312 ?210 230 314 6 259
 +210 210 210 230 23 81 1 312 1072 243 226 0 0 269 261 315 15 314 453 0 142 226
 225 17 142 0 314 142 142 0 316 140 0 0 +17 316 0 248 316 316 0 142 140 0 0 -15
 248 472 0 316 240 317 15 317 473 0 139 240 0 17 139 0 317 139 139 0 252 137 0 0
 +17 252 0 241 252 252 0 139 137 0 0 -81 1 261 1073 243 210 0 0 312 244 318 83 3
 315 .792156862745098 .819607843137255 .933333333333333 81 1 244 1074 243 216 0
 0 261 239 319 83 3 318 .792156862745098 .819607843137255 .933333333333333 83 3
 319 .792156862745098 .819607843137255 .933333333333333 81 1 264 1070 243 214 0
 0 265 269 320 83 3 313 .792156862745098 .819607843137255 .933333333333333 81 1
 265 1069 243 257 0 0 255 264 321 83 3 320 .792156862745098 .819607843137255 .93
3333333333333 81 1 255 1068 243 109 0 0 253 265 322 83 3 321 .792156862745098 .8
19607843137255 .933333333333333 83 3 322 .792156862745098 .819607843137255 .9333
33333333333 83 3 256 .792156862745098 .819607843137255 .933333333333333 83 3 246
 .792156862745098 .819607843137255 .933333333333333 17 79 0 105 172 95 77 229 18
4 0 227 +17 172 0 105 50 79 80 227 170 0 219 +17 50 0 105 204 172 48 219 198 0 1
59 +17 30 0 28 26 97 59 118 122 0 31 -17 118 0 115 116 61 93 30 122 0 120 +19 18
 95 0 1 0 10 6 S50 16 488 0 1 323 4 0 +.073025 -.00343916 -.03175 0 -1 0 1 0 0 5
0 323 487 0 1 324 16 0 +.073025 -.00343916 -.03175 0 -1 0 1 0 0 50 324 300 0 1 3
25 323 0 +.073025 -.00343916 -.03175 0 -1 0 1 0 0 50 325 297 0 1 326 324 0 +.073
025 -.00343916 -.03175 0 -1 0 1 0 0 50 326 295 0 1 327 325 0 +.073025 -.00343916
 -.03175 0 -1 0 1 0 0 50 327 294 0 1 0 326 0 +.073025 -.00343916 -.03175 0 -1 0
 1 0 0 74 4 CI16 index_map_offset0 0 1 dCCZ20 15 2 0 0 2 275 0 0 0 0 0 0 0 0 0 0
 0 0 0 0 0 0 0 0 80 2 13 328 329 8004 0 0 0 0 3 5 0 0 0 FFTFFFFFFFFFFF2 3 83 1 1
4 1e3 79 16 329 SDL/TYSA_DENSITY1 0 
